<?xml version="1.0" encoding="UTF-8"?>
<svg id="Capa_2" xmlns="http://www.w3.org/2000/svg" viewBox="0 0 4785.69 704.07">
  <defs>
    <style>
      .cls-1 {
        fill: #ccf280;
      }
    </style>
  </defs>
  <g id="logo">
    <g id="O-color">
      <path class="cls-1" d="M1429.77.03h-516.27c-51.84,0-93.86,42.03-93.86,93.87v516.26c0,51.84,42.02,93.87,93.86,93.87h516.27c51.84,0,93.87-42.03,93.87-93.87V93.9C1523.64,42.06,1481.61.03,1429.77.03ZM1171.64,281.63c-38.89,0-70.4-31.52-70.4-70.4s31.51-70.4,70.4-70.4,70.4,31.52,70.4,70.4-31.52,70.4-70.4,70.4Z"/>
    </g>
    <g id="R-color">
      <path class="cls-1" d="M675.77,543.02l-71.92-71.93c61.05-48.35,100.22-123.13,100.22-207.07C704.07,118.21,585.86,0,440.04,0H93.88C42.03,0,0,42.03,0,93.88v522.18c0,48.61,39.4,88.01,88.01,88.01h522.18c51.84,0,93.88-42.03,93.88-93.88,0-25.93-10.51-49.39-27.5-66.38l-.8-.79ZM342.84,281.62c-38.89,0-70.41-31.52-70.41-70.4s31.52-70.4,70.41-70.4,70.4,31.52,70.4,70.4-31.52,70.4-70.4,70.4Z"/>
    </g>
    <g id="A-color">
      <g>
        <path class="cls-1" d="M4348.16,55.14c.98-2.17,2.04-4.29,3.18-6.36l-3.18,6.36Z"/>
        <path class="cls-1" d="M4694.78,703.99c-.98.03-1.97.05-2.96.05-1.07,0-2.13-.02-3.19-.05h6.15Z"/>
        <path class="cls-1" d="M4090.07,571.31c.94-2.07,1.96-4.1,3.04-6.09l-3.04,6.09Z"/>
        <path class="cls-1" d="M4178.5,703.99c-.98.03-1.97.05-2.96.05-1.07,0-2.13-.02-3.19-.05h6.15Z"/>
        <path class="cls-1" d="M4775.83,568.25l-.41-.82-257.73-515.46c-15.4-30.8-47.23-51.95-84.01-51.95-17.09,0-33.12,4.58-46.94,12.56-14.83,8.59-27.1,21.11-35.37,36.14l-.03.06-258.18,516.36-.05.08-3.04,6.09c-5.39,11.84-8.4,25-8.4,38.86,0,34.73,18.87,65.08,46.93,81.31,12.96,7.48,27.85,11.97,43.75,12.51h522.43c50.47-1.56,90.91-42.97,90.91-93.82,0-15.06-3.55-29.3-9.86-41.92ZM4433.68,281.63c-38.89,0-70.41-31.52-70.41-70.4,0-15.85,5.24-30.48,14.09-42.24,12.83-17.1,33.28-28.16,56.32-28.16s43.48,11.06,56.32,28.16c8.84,11.76,14.08,26.39,14.08,42.24,0,38.88-31.52,70.4-70.4,70.4Z"/>
        <path class="cls-1" d="M4090.07,571.31c.94-2.07,1.96-4.1,3.04-6.09l-3.04,6.09Z"/>
        <path class="cls-1" d="M4348.16,55.14c.98-2.17,2.04-4.29,3.18-6.36l-3.18,6.36Z"/>
        <line class="cls-1" x1="4090.07" y1="571.31" x2="4089.99" y2="571.47"/>
      </g>
    </g>
    <g id="E-color">
      <path class="cls-1" d="M3576.88,398.93c0,38.88,31.51,70.4,70.39,70.4h258.11c51.83,0,93.86,42.02,93.86,93.85v46.93c0,51.84-42.03,93.86-93.86,93.86h-516.22c-17.08,0-33.1-4.58-46.92-12.55-28.07-16.24-46.93-46.58-46.93-81.31V93.9c0-34.73,18.86-65.07,46.93-81.31,13.82-7.97,29.84-12.55,46.92-12.55h516.22c51.83,0,93.86,42.02,93.86,93.86v46.93c0,51.83-42.03,93.85-93.86,93.85h-93.86v23.47c0,38.88-31.51,70.39-70.39,70.39h-93.86c-38.88,0-70.39,31.51-70.39,70.39Z"/>
    </g>
    <g id="K-color">
      <g id="K-color-2" data-name="K-color">
        <path class="cls-1" d="M3075.3,392.11l-.42-.62c-7.63-11.25-12.09-24.83-12.09-39.45s4.46-28.21,12.09-39.46l.05-.07,112.53-165.98c10.17-15,16.12-33.11,16.12-52.6,0-51.84-42.03-93.86-93.86-93.86h-516.22c-51.83,0-93.85,42.02-93.85,93.86v516.21c0,51.84,42.02,93.86,93.85,93.86h516.22c51.83,0,93.86-42.02,93.86-93.86,0-19.5-5.95-37.6-16.12-52.6l-112.16-165.43ZM2822.82,282.98c-39.13,0-70.85-31.72-70.85-70.85s31.72-70.84,70.85-70.84,70.85,31.72,70.85,70.84-31.72,70.85-70.85,70.85Z"/>
      </g>
    </g>
    <g id="H-color">
      <path class="cls-1" d="M2365.5,93.9v516.26c0,51.84-42.03,93.87-93.87,93.87h-90.93c-53.46,0-96.8-42.03-96.8-93.87,0-38.88-31.52-70.4-70.4-70.4s-70.4,31.52-70.4,70.4c0,51.84-42.03,93.87-93.87,93.87h-93.87c-51.83,0-93.86-42.03-93.86-93.87V93.9C1661.5,42.06,1703.53.03,1755.36.03h93.87c51.84,0,93.87,42.03,93.87,93.87,0,38.88,31.51,70.4,70.4,70.4s70.4-31.52,70.4-70.4C2083.9,42.06,2125.92.03,2177.76.03h93.87c51.84,0,93.87,42.03,93.87,93.87Z"/>
    </g>
  </g>
</svg>